# xmcd
#
# Track frame offsets: 
#        150
#        12087
#        29627
#        50658
#        62615
#        84330
#        104170
#        116438
#        128110
#        148591
#        175049
#        193631
#        211083
#        241122
#        254772
#        270285
#
# Disc length: 3895 seconds
#
# Revision: 3
# Processed by: cddbd v1.5.2PL0 Copyright (c) Steve Scherf et al.
# Submitted via: ExactAudioCopy v0.99pb5
#
DISCID=dd0f3510
DTITLE=Various Artist - Reprise ! When Jazz Meets Pop #2
DYEAR=2006
DGENRE=Jazz
TTITLE0=Smells Like Teen Spirit - Paul Anka
TTITLE1=Get Your Way - Jamie Cullum
TTITLE2=Ashes To Ashes - Bojan Z
TTITLE3=And I Love Him - Esther Phillips 
TTITLE4=Unchain My Heart - John Scofield
TTITLE5=Close To Me - Pyeng Threadgill
TTITLE6=All Tomorrow's Parties - Pascal Comelade and Bel Canto Orquestra
TTITLE7=How Deep Is Your Love - Pink Turtle
TTITLE8=Fragile - Cassandra Wilson
TTITLE9=Theme From MASH (Suicide Is Painless) - Bill Evans Trio
TTITLE10=More Than This - Charlie Hunter Quartet feat. Norah Jones
TTITLE11=Vesoul - Patrick Artero
TTITLE12=The Rain Song - Franck Tortiller and l'ONJ
TTITLE13=Yesterday - Count Basie feat. Bill Henderson
TTITLE14=All In Love Is Fair - Michel Graillier
TTITLE15=Sorry Seems To Be The Hardest Word - Jimmy Scott
EXTD=YEAR: 2006
EXTT0=
EXTT1=
EXTT2=
EXTT3=
EXTT4=
EXTT5=
EXTT6=
EXTT7=
EXTT8=
EXTT9=
EXTT10=
EXTT11=
EXTT12=
EXTT13=
EXTT14=
EXTT15=
PLAYORDER=
